<svg width="124" height="48" viewBox="0 0 124 48" fill="none" xmlns="http://www.w3.org/2000/svg">
<g clip-path="url(#clip0_19_7550)">
<path d="M0.87793 33.9375C0.87793 34.5703 1.08887 35.1035 1.50488 35.5371C1.9209 35.9648 2.44824 36.1816 3.08691 36.1816C3.75488 36.1816 4.2998 35.9707 4.72754 35.5605C5.15527 35.1504 5.37207 34.6055 5.37207 33.9375V14.5781C5.37207 13.9453 5.16113 13.4062 4.74512 12.9785C4.3291 12.5449 3.80176 12.3281 3.17481 12.3281C2.50684 12.3281 1.96191 12.5391 1.52832 12.9551C1.09473 13.3711 0.87793 13.916 0.87793 14.5781V33.9434V33.9375ZM3.20996 4.23633C2.40137 4.23633 1.72754 4.49414 1.18262 5.01563C0.637695 5.53711 0.362305 6.19922 0.362305 7.01367C0.362305 7.82813 0.625977 8.44336 1.15918 8.97656C1.69238 9.50977 2.34863 9.7793 3.12793 9.7793C3.90723 9.7793 4.55176 9.52148 5.06738 9C5.58301 8.47852 5.84668 7.82812 5.84668 7.04883C5.84668 6.26953 5.60059 5.61328 5.11426 5.0625C4.62793 4.51172 3.98926 4.23633 3.20996 4.23633ZM26.3838 24.0879C26.3838 26.6543 27.0225 28.998 28.3057 31.1309C29.5889 33.2637 31.3057 34.7578 33.4678 35.625C34.4756 36.2285 36.2334 36.4453 38.7412 36.2754C40.2998 36.1934 41.5068 35.918 42.374 35.4492C42.8604 35.1914 43.499 34.7168 44.2783 34.0195C44.4775 33.8789 44.7236 33.6504 45.0107 33.334V34.4121C45.0107 34.9629 45.2217 35.4023 45.6377 35.7305C46.0537 36.0586 46.54 36.2227 47.0791 36.2227C47.7471 36.2227 48.292 36.0059 48.7256 35.5781C49.1592 35.1504 49.376 34.5996 49.376 33.9375V14.1445C49.376 13.5117 49.1592 12.9668 48.7256 12.5215C48.292 12.0762 47.7588 11.8477 47.126 11.8477C46.4932 11.8477 45.9424 12.0703 45.4854 12.5215C45.0283 12.9727 44.794 13.5117 44.794 14.1445V15.5625C42.4619 13.3184 40.2998 12.1934 38.3135 12.1934C34.9971 12.1934 32.1846 13.3535 29.8643 15.6738C27.5439 17.9941 26.3838 20.8008 26.3838 24.0879ZM31.0068 24.3926C31.0068 22.2012 31.6924 20.3262 33.0635 18.7734C34.4346 17.2207 36.0811 16.4414 38.0147 16.4414C39.9482 16.4414 41.5947 17.2207 42.9658 18.7734C44.3369 20.3262 45.0225 22.207 45.0225 24.3926C45.0225 26.5781 44.3369 28.4941 42.9658 30.0527C41.5947 31.6113 39.9482 32.3848 38.0147 32.3848C36.0811 32.3848 34.4346 31.6055 33.0635 30.0527C31.6924 28.5 31.0068 26.6074 31.0068 24.3926ZM68.7002 24.0879C68.7002 26.6543 69.3389 28.998 70.6221 31.1309C71.9053 33.2637 73.6221 34.7578 75.7842 35.625C76.7979 36.2285 78.5557 36.4453 81.0576 36.2754C82.6162 36.1934 83.8232 35.918 84.6904 35.4492C85.1768 35.1914 85.8154 34.7168 86.5947 34.0195C86.794 33.8789 87.04 33.6504 87.3272 33.334V34.4121C87.3272 34.9629 87.5381 35.4023 87.9541 35.7305C88.3701 36.0586 88.8565 36.2227 89.4072 36.2227C90.0635 36.2227 90.6143 36.0059 91.0479 35.5781C91.4815 35.1504 91.6983 34.5996 91.6983 33.9375V4.41211C91.6983 3.7793 91.4815 3.24023 91.0479 2.78906C90.6143 2.33789 90.0811 2.12109 89.4482 2.12109C88.8154 2.12109 88.2647 2.34375 87.8076 2.78906C87.3506 3.23438 87.1162 3.77344 87.1162 4.41211V15.5625C84.7842 13.3184 82.6221 12.1934 80.6358 12.1934C77.3193 12.1934 74.5068 13.3535 72.1865 15.6738C69.8662 17.9941 68.7061 20.8008 68.7061 24.0879M73.3291 24.3926C73.3291 22.2012 74.0147 20.3262 75.3857 18.7734C76.7568 17.2207 78.4033 16.4414 80.3369 16.4414C82.2705 16.4414 83.917 17.2207 85.2881 18.7734C86.6592 20.3262 87.3447 22.207 87.3447 24.3926C87.3447 26.5781 86.6592 28.4941 85.2881 30.0527C83.917 31.6113 82.2705 32.3848 80.3369 32.3848C78.4033 32.3848 76.7568 31.6055 75.3857 30.0527C74.0147 28.5 73.3291 26.6074 73.3291 24.3926Z" fill="#2F1C6A"/>
<path d="M121.177 26.168C122.185 26.168 122.847 25.9688 123.163 25.5645C123.479 25.1602 123.638 24.4395 123.638 23.4024C123.638 22.5352 123.351 21.2402 122.776 19.5117C122.255 17.9824 121.019 16.4356 119.062 14.8887C117.239 13.4414 115.124 12.6914 112.71 12.6387C111.21 12.6094 109.71 12.8672 108.216 13.418C106.229 14.168 104.583 15.4043 103.282 17.1328C101.642 19.3535 100.821 21.8027 100.821 24.4863C100.821 26.3848 101.126 28.084 101.735 29.584C102.456 31.3945 103.81 33.0235 105.796 34.4649C107.782 35.9063 109.798 36.627 111.843 36.627H114.093C115.042 36.3399 115.751 36.0938 116.208 35.8945C117.626 35.4375 118.909 34.7461 120.052 33.8145C121.065 33.041 121.569 32.2793 121.569 31.5235C121.569 30.4629 121.048 29.8301 120.011 29.6309H119.571C119.085 29.6309 118.739 29.7129 118.534 29.8887L117.104 30.8379C116.36 31.3594 115.739 31.7168 115.247 31.916C114.298 32.3203 113.302 32.5195 112.271 32.5195C110.94 32.5195 109.786 32.1445 108.808 31.3945C107.683 30.5274 106.874 29.5899 106.382 28.582C106.042 27.6621 105.854 27.0527 105.825 26.7715C105.796 26.6016 105.778 26.3848 105.778 26.1211L121.171 26.168H121.177ZM105.579 22.8809L105.884 21.8848C106.288 20.5606 106.575 19.7813 106.745 19.5527C108.017 17.8887 109.183 16.9043 110.249 16.6113C111.573 16.2715 112.493 16.1426 113.015 16.2246C114.573 16.4824 115.862 17.1445 116.882 18.211C117.901 19.2774 118.599 20.502 118.974 21.8848L119.237 22.8809H105.579Z" fill="#2F1C6A"/>
<path d="M55.0479 12.1875C57.6494 15.7031 58.9502 19.6406 58.9502 24.0059C58.9502 29.5254 56.9814 34.2539 53.0381 38.1914C49.0947 42.1289 44.3662 44.1035 38.8408 44.1035C33.3154 44.1035 28.5928 42.1348 24.6553 38.1914C20.7178 34.2481 18.7432 29.5254 18.7432 24.0059C18.7432 18.4863 20.7119 13.752 24.6553 9.80859C28.5986 5.86523 33.3213 3.89648 38.8408 3.89648C43.2061 3.89648 47.1436 5.19727 50.6592 7.79883L52.1592 4.02539C48.1221 1.3418 43.6807 -0.00585938 38.8408 -0.00585938C32.2432 -0.00585938 26.5947 2.34375 21.8955 7.04297C17.1963 11.7422 14.8467 17.3965 14.8467 24C14.8467 30.6035 17.1963 36.2461 21.8955 40.9453C26.5947 45.6445 32.2432 47.9941 38.8408 47.9941C45.4385 47.9941 51.0986 45.6445 55.7979 40.9453C60.4971 36.2461 62.8467 30.5977 62.8467 24C62.8467 19.1602 61.5049 14.7188 58.8154 10.6816M52.2236 10.6172L61.0947 7.08399L55.7568 1.74609L52.2236 10.6172Z" fill="#2F1C6A"/>
</g>
<defs>
<clipPath id="clip0_19_7550">
<rect width="123.275" height="48" fill="white" transform="translate(0.362305)"/>
</clipPath>
</defs>
</svg>
